<?xml version="1.0" encoding="utf-8"?>
<!-- Generator: Adobe Illustrator 16.0.3, SVG Export Plug-In . SVG Version: 6.00 Build 0)  -->
<!DOCTYPE svg PUBLIC "-//W3C//DTD SVG 1.1//EN" "http://www.w3.org/Graphics/SVG/1.1/DTD/svg11.dtd">
<svg version="1.1" id="katman_1" xmlns="http://www.w3.org/2000/svg" xmlns:xlink="http://www.w3.org/1999/xlink" x="0px" y="0px"
	 width="400px" height="65px" viewBox="0 0 400 65" enable-background="new 0 0 400 65" xml:space="preserve">
<g>
	<path fill-rule="evenodd" clip-rule="evenodd" fill="#8C0C0C" d="M13.875,58.622L26.08,19.73c0,0,10.979-0.109,14.638-0.109
		c0.803,0,12.35,0.409,11.487,15.522c-0.271,4.74-3.187,11.361-15.334,11.248L42.896,26h-12.38L20.402,58.642
		c0,0,12.926-0.104,17.882-0.104c1.861,0,25.73-0.875,25.811-26.039c0,0,1.478-22.437-22.79-24.711
		c-5.908-0.554-23.734-0.003-23.734-0.003L1.308,58.438L13.875,58.622z"/>
	<g>
		<g>
			<path fill="#8C0C0C" d="M94.886,33.813H79.85V19.817h6.981v8.223h8.055c3.859,0,6.645-2.148,6.645-5.371
				c0-3.154-2.886-5.47-6.645-5.47H79.85l4.43-5.84h10.606c7.854,0,13.525,4.53,13.525,11.008
				C108.411,28.879,102.672,33.813,94.886,33.813z"/>
			<path fill="#8C0C0C" d="M141.372,22.57c0,8.021-5.504,11.613-16.412,11.613c-10.942,0-16.412-3.592-16.412-11.613
				c0-8.021,5.47-11.58,16.412-11.58C135.868,10.99,141.372,14.548,141.372,22.57z M134.458,22.57c0-4.833-2.517-5.739-9.498-5.739
				c-6.981,0-9.498,0.905-9.498,5.739c0,4.833,2.516,5.772,9.498,5.772C131.941,28.342,134.458,27.403,134.458,22.57z"/>
			<path fill="#8C0C0C" d="M174.065,33.813h-9.297l-5-5.941h-10.673v5.941h-6.947V22.335h19.533c2.148,0,3.826-0.974,3.826-2.518
				c0-1.745-1.443-2.617-3.826-2.617h-19.533l4.531-5.84h14.431c5.102,0,11.545,1.611,11.545,8.021c0,3.49-2.181,6.376-5.874,7.116
				c0.773,0.57,1.612,1.375,3.156,2.953L174.065,33.813z"/>
			<path fill="#8C0C0C" d="M203.033,24.013c0,6.78-4.666,10.17-13.996,10.17c-10.808,0-15.473-3.39-15.473-10.17V11.36h6.915v12.653
				c0,3.323,1.409,4.397,8.558,4.397c5.335,0,7.014-1.243,7.014-4.397V11.36h6.981V24.013z"/>
			<path fill="#8C0C0C" d="M232.604,33.813h-10.505l-6.778-5.907c-2.317-2.014-3.392-2.988-4.162-3.759
				c0.033,1.04,0.1,2.147,0.1,3.221v6.445h-6.979V11.36h6.979v5.202c0,1.376-0.066,2.752-0.134,3.927
				c0.872-0.806,2.081-1.947,4.128-3.658l6.478-5.471h10.068l-8.592,6.444c-2.986,2.249-4.362,3.255-5.806,4.128
				c1.274,0.873,3.021,2.115,5.907,4.464L232.604,33.813z"/>
			<path fill="#BCBCBC" d="M249.423,33.813h-6.948V11.36h6.948V33.813z M245.966,4.278c1.61,0,2.885,0.906,2.885,2.518
				c0,1.543-1.274,2.449-2.885,2.449c-1.578,0-2.854-0.905-2.854-2.449C243.112,5.184,244.388,4.278,245.966,4.278z"/>
			<path fill="#BCBCBC" d="M271.036,32.974l-13.761-12.351v13.19h-6.31V15.186c0-2.987,1.813-4.196,3.793-4.196
				c0.84,0,1.68,0.203,2.786,1.209l13.761,12.35V11.36h6.342v18.593c0,2.988-1.811,4.229-3.825,4.229
				C272.95,34.183,272.11,33.98,271.036,32.974z"/>
			<path fill="#BCBCBC" d="M299.869,20.321c5.471,0,8.424,2.047,8.424,6.142c0,4.598-2.786,7.351-9.633,7.351h-20.908l4.463-5.773
				h16.982c1.646,0,2.384-0.47,2.384-1.645c0-1.142-0.738-1.611-2.384-1.611h-12.216c-5.773,0-8.424-2.584-8.424-6.445
				c0-4.229,2.819-6.98,9.632-6.98h19.5l-4.464,5.84h-15.573c-1.611,0-2.383,0.402-2.383,1.543c0,1.141,0.771,1.578,2.383,1.578
				H299.869z M295.675,34.854l-2.753,7.518h-2.416v-7.518H295.675z"/>
			<path fill="#BCBCBC" d="M316.52,33.813l4.194-5.773h5.638c1.344,0,2.921,0,3.995,0.067c-0.604-0.806-1.545-2.183-2.282-3.255
				l-4.027-5.941l-10.539,14.902h-8.223l14.398-20.306c0.94-1.308,2.315-2.518,4.498-2.518c2.08,0,3.456,1.108,4.43,2.518
				l14.029,20.306H316.52z"/>
			<path fill="#BCBCBC" d="M351.931,33.813l4.195-5.773h5.639c1.343,0,2.92,0,3.993,0.067c-0.604-0.806-1.543-2.183-2.281-3.255
				l-4.028-5.941L348.91,33.813h-8.224l14.399-20.306c0.939-1.308,2.315-2.518,4.497-2.518c2.081,0,3.457,1.108,4.43,2.518
				l14.029,20.306H351.931z"/>
			<path fill="#BCBCBC" d="M398.553,11.36l-4.498,5.84h-8.021v16.613h-6.947V17.2h-10.539l4.498-5.84H398.553z"/>
		</g>
		<g>
			<path fill="#8C0C0C" d="M162.305,47.196l-0.762,3.527h-0.308c-0.043-1.026-0.275-1.766-0.694-2.218
				c-0.418-0.45-1.007-0.677-1.764-0.677c-0.778,0-1.557,0.273-2.336,0.822c-0.778,0.55-1.442,1.396-1.991,2.538
				c-0.549,1.145-0.823,2.347-0.823,3.606c0,1.081,0.243,1.908,0.73,2.478c0.486,0.571,1.057,0.856,1.712,0.856
				c0.275,0,0.61-0.079,1.005-0.234l0.844-2.904c0.141-0.487,0.211-0.806,0.211-0.957c0-0.2-0.085-0.369-0.255-0.508
				c-0.171-0.138-0.464-0.207-0.881-0.207l0.082-0.308h4.745l-0.072,0.308c-0.282,0.017-0.502,0.069-0.662,0.158
				c-0.16,0.09-0.285,0.222-0.377,0.394c-0.054,0.103-0.137,0.368-0.251,0.794l-0.998,3.384c-1.136,0.433-2.332,0.648-3.585,0.648
				c-0.969,0-1.792-0.176-2.47-0.527s-1.241-0.908-1.687-1.671c-0.446-0.763-0.669-1.63-0.669-2.603
				c0-2.077,0.922-3.788,2.765-5.135c1.443-1.043,3.082-1.565,4.915-1.565c0.319,0,0.614,0.017,0.884,0.049
				c0.201,0.026,0.552,0.102,1.056,0.228c0.325,0.08,0.546,0.12,0.665,0.12c0.238,0,0.462-0.132,0.673-0.396H162.305z"/>
			<path fill="#8C0C0C" d="M165.484,55.403c-0.048,0.352-0.072,0.642-0.072,0.87c0,0.405,0.118,0.729,0.353,0.973
				c0.236,0.243,0.55,0.363,0.945,0.363c0.378,0,0.758-0.091,1.14-0.274c0.38-0.184,0.823-0.506,1.326-0.966l0.243,0.22
				c-0.621,0.751-1.227,1.287-1.816,1.605c-0.589,0.319-1.242,0.479-1.955,0.479c-0.902,0-1.528-0.218-1.873-0.649
				c-0.346-0.434-0.52-0.934-0.52-1.501c0-0.886,0.258-1.773,0.775-2.66c0.516-0.887,1.219-1.599,2.109-2.133
				c0.889-0.535,1.782-0.804,2.68-0.804c0.455,0,0.798,0.108,1.031,0.325c0.232,0.216,0.35,0.489,0.35,0.818
				c0,0.396-0.114,0.778-0.341,1.152c-0.313,0.508-0.708,0.918-1.184,1.228c-0.477,0.312-1.009,0.549-1.599,0.712
				C166.679,55.27,166.148,55.35,165.484,55.403z M165.556,54.982c0.477-0.07,0.846-0.166,1.108-0.288
				c0.262-0.122,0.519-0.316,0.77-0.584c0.251-0.268,0.47-0.604,0.653-1.013c0.183-0.409,0.275-0.791,0.275-1.149
				c0-0.15-0.042-0.27-0.125-0.356c-0.084-0.086-0.19-0.13-0.32-0.13c-0.259,0-0.552,0.182-0.876,0.544
				C166.446,52.666,165.952,53.658,165.556,54.982z"/>
			<path fill="#8C0C0C" d="M176.514,47.196l-2.685,9.133c-0.157,0.54-0.235,0.879-0.235,1.014c0,0.07,0.023,0.13,0.069,0.178
				c0.045,0.049,0.095,0.074,0.15,0.074c0.097,0,0.189-0.039,0.275-0.114c0.261-0.21,0.549-0.567,0.869-1.07l0.316,0.146
				c-0.514,0.82-1.019,1.408-1.517,1.76c-0.341,0.237-0.703,0.357-1.086,0.357c-0.357,0-0.641-0.097-0.853-0.289
				c-0.211-0.191-0.315-0.424-0.315-0.693c0-0.199,0.064-0.521,0.194-0.965l2.189-7.479c0.119-0.41,0.178-0.683,0.178-0.818
				c0-0.131-0.056-0.232-0.169-0.31c-0.151-0.107-0.381-0.153-0.689-0.137l0.09-0.309l2.733-0.479H176.514z"/>
			<path fill="#8C0C0C" d="M179.465,55.403c-0.049,0.352-0.072,0.642-0.072,0.87c0,0.405,0.118,0.729,0.353,0.973
				c0.235,0.243,0.55,0.363,0.945,0.363c0.378,0,0.759-0.091,1.14-0.274c0.38-0.184,0.823-0.506,1.325-0.966l0.243,0.22
				c-0.621,0.751-1.227,1.287-1.816,1.605c-0.589,0.319-1.242,0.479-1.954,0.479c-0.903,0-1.528-0.218-1.874-0.649
				c-0.346-0.434-0.519-0.934-0.519-1.501c0-0.886,0.258-1.773,0.774-2.66c0.516-0.887,1.219-1.599,2.109-2.133
				c0.889-0.535,1.782-0.804,2.681-0.804c0.454,0,0.797,0.108,1.03,0.325c0.232,0.216,0.349,0.489,0.349,0.818
				c0,0.396-0.113,0.778-0.341,1.152c-0.313,0.508-0.708,0.918-1.184,1.228c-0.475,0.312-1.009,0.549-1.598,0.712
				C180.662,55.27,180.131,55.35,179.465,55.403z M179.539,54.982c0.476-0.07,0.845-0.166,1.107-0.288
				c0.261-0.122,0.519-0.316,0.77-0.584c0.251-0.268,0.469-0.604,0.653-1.013c0.183-0.409,0.276-0.791,0.276-1.149
				c0-0.15-0.042-0.27-0.126-0.356c-0.083-0.086-0.19-0.13-0.32-0.13c-0.26,0-0.551,0.182-0.877,0.544
				C180.429,52.666,179.934,53.658,179.539,54.982z"/>
			<path fill="#8C0C0C" d="M191.477,56.491l0.243,0.219c-0.524,0.627-1.041,1.087-1.55,1.38c-0.675,0.39-1.375,0.584-2.1,0.584
				c-0.487,0-0.918-0.105-1.294-0.313c-0.375-0.209-0.652-0.5-0.831-0.877c-0.179-0.375-0.268-0.761-0.268-1.155
				c0-0.887,0.241-1.759,0.722-2.616c0.482-0.856,1.117-1.535,1.907-2.036c0.79-0.499,1.566-0.75,2.328-0.75
				c0.611,0,1.071,0.136,1.379,0.405c0.307,0.271,0.462,0.606,0.462,1.007c0,0.362-0.117,0.671-0.349,0.924
				c-0.232,0.254-0.492,0.382-0.779,0.382c-0.248,0-0.455-0.081-0.62-0.243s-0.247-0.354-0.247-0.576
				c0-0.292,0.146-0.547,0.438-0.763c0.199-0.151,0.3-0.283,0.3-0.397c0-0.097-0.041-0.176-0.122-0.235
				c-0.108-0.087-0.248-0.129-0.422-0.129c-0.454,0-0.881,0.183-1.282,0.551c-0.529,0.487-0.936,1.104-1.216,1.85
				c-0.281,0.746-0.423,1.454-0.423,2.125c0,0.529,0.144,0.952,0.43,1.27c0.287,0.315,0.627,0.474,1.022,0.474
				c0.346,0,0.72-0.089,1.123-0.267C190.732,57.124,191.114,56.854,191.477,56.491z"/>
			<path fill="#8C0C0C" d="M196.205,55.403c-0.048,0.352-0.073,0.642-0.073,0.87c0,0.405,0.118,0.729,0.354,0.973
				c0.235,0.243,0.55,0.363,0.944,0.363c0.378,0,0.759-0.091,1.141-0.274c0.38-0.184,0.823-0.506,1.325-0.966l0.244,0.22
				c-0.623,0.751-1.229,1.287-1.816,1.605c-0.589,0.319-1.242,0.479-1.955,0.479c-0.904,0-1.528-0.218-1.874-0.649
				c-0.347-0.434-0.52-0.934-0.52-1.501c0-0.886,0.259-1.773,0.775-2.66c0.516-0.887,1.219-1.599,2.108-2.133
				c0.89-0.535,1.784-0.804,2.681-0.804c0.454,0,0.798,0.108,1.03,0.325c0.232,0.216,0.349,0.489,0.349,0.818
				c0,0.396-0.114,0.778-0.341,1.152c-0.313,0.508-0.709,0.918-1.184,1.228c-0.476,0.312-1.009,0.549-1.598,0.712
				C197.4,55.27,196.87,55.35,196.205,55.403z M196.277,54.982c0.477-0.07,0.846-0.166,1.107-0.288
				c0.263-0.122,0.519-0.316,0.771-0.584c0.25-0.268,0.468-0.604,0.652-1.013c0.184-0.409,0.276-0.791,0.276-1.149
				c0-0.15-0.041-0.27-0.126-0.356c-0.084-0.086-0.19-0.13-0.321-0.13c-0.258,0-0.551,0.182-0.875,0.544
				C197.167,52.666,196.672,53.658,196.277,54.982z"/>
			<path fill="#8C0C0C" d="M208.402,51.422h2.158l-0.26,0.893h-1.119c0.172,0.318,0.259,0.621,0.259,0.908
				c0,0.492-0.134,0.946-0.4,1.362c-0.269,0.417-0.663,0.749-1.185,0.997c-0.521,0.25-1.103,0.374-1.739,0.374
				c-0.169,0-0.354-0.012-0.557-0.036c-0.202-0.025-0.423-0.059-0.661-0.103c-0.356,0.185-0.581,0.331-0.672,0.439
				c-0.065,0.075-0.099,0.153-0.099,0.234c0,0.098,0.041,0.181,0.122,0.252c0.141,0.123,0.349,0.217,0.624,0.275
				c1.104,0.237,1.831,0.43,2.183,0.576c0.48,0.2,0.845,0.456,1.091,0.771c0.245,0.313,0.369,0.69,0.369,1.136
				c0,0.675-0.312,1.267-0.933,1.771c-0.622,0.506-1.585,0.759-2.889,0.759c-1.313,0-2.281-0.217-2.904-0.649
				c-0.448-0.313-0.672-0.688-0.672-1.119c0-0.33,0.147-0.635,0.441-0.916c0.295-0.281,0.927-0.53,1.895-0.746
				c-0.33-0.185-0.553-0.352-0.666-0.504c-0.156-0.205-0.234-0.419-0.234-0.641c0-0.361,0.146-0.681,0.434-0.957
				c0.289-0.275,0.775-0.549,1.456-0.819c-0.529-0.211-0.913-0.481-1.147-0.814c-0.236-0.333-0.353-0.721-0.353-1.164
				c0-0.471,0.142-0.918,0.426-1.343c0.283-0.424,0.703-0.769,1.257-1.034c0.555-0.265,1.191-0.397,1.91-0.397
				c0.46,0,0.868,0.052,1.225,0.154C207.946,51.135,208.16,51.249,208.402,51.422z M203.91,58.786
				c-0.516,0.201-0.865,0.417-1.051,0.649c-0.188,0.232-0.28,0.483-0.28,0.754c0,0.352,0.185,0.67,0.556,0.953
				c0.369,0.284,0.961,0.426,1.772,0.426c0.676,0,1.165-0.122,1.467-0.369c0.304-0.246,0.455-0.533,0.455-0.863
				c0-0.291-0.14-0.53-0.417-0.714c-0.279-0.184-0.813-0.376-1.602-0.575C204.442,58.949,204.142,58.861,203.91,58.786z
				 M206.707,51.324c-0.265,0-0.488,0.087-0.673,0.26c-0.292,0.266-0.548,0.709-0.767,1.33c-0.219,0.622-0.328,1.212-0.328,1.768
				c0,0.266,0.076,0.475,0.23,0.63c0.154,0.153,0.346,0.23,0.572,0.23c0.222,0,0.414-0.075,0.576-0.228
				c0.309-0.297,0.576-0.771,0.803-1.422c0.228-0.652,0.341-1.243,0.341-1.773c0-0.237-0.073-0.429-0.219-0.576
				C207.097,51.397,206.918,51.324,206.707,51.324z M205.45,47.196h0.26c0.081,0.459,0.257,0.797,0.527,1.013
				c0.271,0.218,0.648,0.325,1.135,0.325c0.898,0,1.593-0.447,2.085-1.338h0.316c-0.275,0.994-0.655,1.714-1.139,2.157
				c-0.484,0.443-1.002,0.665-1.555,0.665c-0.524,0-0.957-0.173-1.297-0.519c-0.341-0.347-0.511-0.807-0.511-1.38
				C205.272,47.862,205.331,47.553,205.45,47.196z"/>
			<path fill="#8C0C0C" d="M215.516,50.927l-1.663,5.768c-0.093,0.329-0.138,0.545-0.138,0.648c0,0.06,0.023,0.115,0.072,0.167
				c0.05,0.052,0.101,0.076,0.155,0.076c0.091,0,0.183-0.04,0.274-0.121c0.244-0.2,0.536-0.563,0.877-1.087l0.275,0.162
				c-0.817,1.421-1.685,2.134-2.604,2.134c-0.352,0-0.632-0.1-0.84-0.297c-0.207-0.197-0.312-0.447-0.312-0.751
				c0-0.199,0.045-0.453,0.137-0.762l1.127-3.878c0.108-0.372,0.164-0.653,0.164-0.843c0-0.118-0.052-0.224-0.154-0.315
				c-0.104-0.093-0.244-0.138-0.423-0.138c-0.081,0-0.178,0.002-0.292,0.007l0.105-0.324l2.75-0.446H215.516z M215.013,47.196
				c0.335,0,0.616,0.115,0.847,0.349c0.229,0.232,0.346,0.514,0.346,0.845c0,0.328-0.117,0.609-0.35,0.842
				c-0.232,0.233-0.514,0.35-0.843,0.35c-0.325,0-0.604-0.116-0.836-0.35c-0.232-0.232-0.349-0.514-0.349-0.842
				c0-0.331,0.115-0.612,0.345-0.845C214.402,47.312,214.683,47.196,215.013,47.196z"/>
			<path fill="#8C0C0C" d="M226.276,50.927l-1.663,5.768c-0.091,0.329-0.138,0.545-0.138,0.648c0,0.06,0.024,0.115,0.073,0.167
				s0.101,0.076,0.154,0.076c0.092,0,0.183-0.04,0.276-0.121c0.242-0.2,0.534-0.563,0.875-1.087l0.276,0.162
				c-0.816,1.421-1.686,2.134-2.604,2.134c-0.352,0-0.632-0.1-0.839-0.297c-0.208-0.197-0.313-0.447-0.313-0.751
				c0-0.199,0.046-0.453,0.138-0.762l1.128-3.878c0.108-0.372,0.162-0.653,0.162-0.843c0-0.118-0.052-0.224-0.154-0.315
				c-0.103-0.093-0.244-0.138-0.422-0.138c-0.081,0-0.179,0.002-0.292,0.007l0.105-0.324l2.749-0.446H226.276z M225.774,47.196
				c0.335,0,0.617,0.115,0.847,0.349c0.23,0.232,0.345,0.514,0.345,0.845c0,0.328-0.115,0.609-0.349,0.842
				c-0.232,0.233-0.514,0.35-0.843,0.35c-0.325,0-0.604-0.116-0.836-0.35c-0.232-0.232-0.35-0.514-0.35-0.842
				c0-0.331,0.115-0.612,0.346-0.845C225.164,47.312,225.444,47.196,225.774,47.196z"/>
			<path fill="#8C0C0C" d="M232.091,50.927l-1.006,3.48c0.677-1.018,1.182-1.712,1.518-2.085c0.492-0.541,0.916-0.908,1.272-1.103
				c0.356-0.195,0.692-0.293,1.006-0.293c0.281,0,0.522,0.104,0.722,0.313c0.2,0.208,0.301,0.479,0.301,0.814
				c0,0.304-0.065,0.671-0.194,1.104l-1.038,3.464c-0.088,0.303-0.13,0.5-0.13,0.592c0,0.055,0.02,0.104,0.06,0.146
				c0.04,0.044,0.083,0.066,0.127,0.066c0.053,0,0.11-0.022,0.17-0.066c0.189-0.157,0.382-0.378,0.576-0.664
				c0.048-0.076,0.126-0.189,0.235-0.341l0.309,0.187c-0.796,1.336-1.632,2.003-2.508,2.003c-0.335,0-0.596-0.087-0.786-0.259
				c-0.189-0.173-0.283-0.389-0.283-0.649c0-0.227,0.064-0.564,0.194-1.014l1.013-3.464c0.071-0.227,0.106-0.394,0.106-0.503
				c0-0.06-0.024-0.112-0.073-0.158c-0.049-0.045-0.105-0.067-0.171-0.067c-0.204,0-0.453,0.14-0.746,0.42
				c-0.745,0.715-1.467,1.776-2.165,3.188l-0.666,2.409h-2.067l1.517-5.207c0.146-0.515,0.22-0.879,0.22-1.096
				c0-0.092-0.022-0.169-0.065-0.231c-0.043-0.062-0.113-0.11-0.211-0.146c-0.097-0.035-0.281-0.053-0.552-0.053l0.089-0.309
				l2.733-0.479H232.091z"/>
			<path fill="#8C0C0C" d="M244.07,50.927l-0.356,2.507h-0.301c-0.044-0.648-0.242-1.159-0.597-1.532
				c-0.354-0.375-0.732-0.561-1.139-0.561c-0.25,0-0.454,0.073-0.616,0.219c-0.163,0.146-0.244,0.322-0.244,0.527
				c0,0.173,0.036,0.335,0.105,0.486c0.07,0.151,0.228,0.357,0.47,0.617c0.855,0.919,1.374,1.552,1.558,1.897
				c0.185,0.347,0.276,0.717,0.276,1.111c0,0.428-0.108,0.832-0.324,1.212c-0.216,0.382-0.54,0.688-0.97,0.917
				c-0.43,0.23-0.878,0.346-1.342,0.346c-0.314,0-0.701-0.063-1.16-0.188c-0.303-0.086-0.53-0.129-0.682-0.129
				c-0.135,0-0.24,0.02-0.315,0.06c-0.076,0.041-0.16,0.126-0.252,0.257h-0.301l0.398-2.701h0.26
				c0.188,0.654,0.365,1.12,0.531,1.398c0.164,0.278,0.384,0.5,0.66,0.666c0.276,0.164,0.541,0.247,0.795,0.247
				c0.297,0,0.544-0.094,0.738-0.28s0.293-0.409,0.293-0.669c0-0.255-0.064-0.501-0.191-0.738s-0.421-0.609-0.88-1.111
				c-0.633-0.687-1.05-1.217-1.249-1.589c-0.141-0.271-0.212-0.58-0.212-0.926c0-0.584,0.213-1.069,0.638-1.459
				c0.424-0.39,1.021-0.585,1.788-0.585c0.336,0,0.747,0.061,1.233,0.18c0.242,0.059,0.438,0.089,0.584,0.089
				c0.21,0,0.38-0.089,0.511-0.269H244.07z M240.396,58.446h0.616l-0.561,0.422c0.443,0.059,0.772,0.201,0.986,0.426
				s0.319,0.493,0.319,0.808c0,0.377-0.168,0.705-0.507,0.98c-0.338,0.275-0.877,0.413-1.617,0.413
				c-0.601,0-1.122-0.081-1.565-0.242l0.097-0.252c0.405,0.076,0.708,0.113,0.909,0.113c0.361,0,0.64-0.082,0.835-0.247
				c0.194-0.165,0.292-0.36,0.292-0.588c0-0.189-0.063-0.348-0.187-0.475c-0.125-0.127-0.268-0.19-0.43-0.19
				c-0.119,0-0.268,0.021-0.446,0.064l-0.105-0.243L240.396,58.446z"/>
			<path fill="#8C0C0C" d="M253.308,51.041l-1.573,5.394l-0.162,0.656c-0.017,0.082-0.025,0.142-0.025,0.18
				c0,0.064,0.023,0.121,0.069,0.17c0.047,0.049,0.093,0.072,0.143,0.072c0.113,0,0.271-0.086,0.47-0.259
				c0.082-0.07,0.276-0.319,0.584-0.746l0.284,0.146c-0.384,0.703-0.793,1.216-1.229,1.537c-0.435,0.321-0.904,0.483-1.406,0.483
				c-0.309,0-0.544-0.081-0.706-0.24c-0.162-0.16-0.243-0.36-0.243-0.604c0-0.212,0.087-0.604,0.26-1.177l0.194-0.657
				c-0.627,1.077-1.229,1.839-1.81,2.288c-0.335,0.259-0.691,0.39-1.07,0.39c-0.497,0-0.856-0.205-1.079-0.613
				c-0.222-0.408-0.332-0.868-0.332-1.382c0-0.764,0.232-1.638,0.698-2.625c0.465-0.986,1.076-1.779,1.833-2.38
				c0.621-0.498,1.205-0.747,1.751-0.747c0.303,0,0.547,0.088,0.73,0.263c0.184,0.176,0.319,0.498,0.405,0.963l0.293-0.998
				L253.308,51.041z M250.712,52.581c0-0.438-0.067-0.753-0.203-0.947c-0.097-0.136-0.229-0.204-0.396-0.204
				c-0.168,0-0.341,0.082-0.52,0.244c-0.362,0.335-0.753,1.015-1.172,2.039c-0.42,1.025-0.629,1.911-0.629,2.656
				c0,0.286,0.047,0.494,0.142,0.621c0.096,0.128,0.199,0.19,0.313,0.19c0.243,0,0.49-0.141,0.738-0.422
				c0.356-0.399,0.679-0.889,0.966-1.469C250.457,54.273,250.712,53.371,250.712,52.581z"/>
			<path fill="#8C0C0C" d="M262.398,55.403c-0.049,0.352-0.073,0.642-0.073,0.87c0,0.405,0.117,0.729,0.353,0.973
				c0.235,0.243,0.551,0.363,0.944,0.363c0.38,0,0.759-0.091,1.141-0.274c0.38-0.184,0.823-0.506,1.326-0.966l0.243,0.22
				c-0.623,0.751-1.228,1.287-1.816,1.605c-0.59,0.319-1.242,0.479-1.955,0.479c-0.903,0-1.528-0.218-1.873-0.649
				c-0.347-0.434-0.521-0.934-0.521-1.501c0-0.886,0.259-1.773,0.775-2.66c0.516-0.887,1.219-1.599,2.109-2.133
				c0.889-0.535,1.782-0.804,2.68-0.804c0.454,0,0.798,0.108,1.03,0.325c0.232,0.216,0.349,0.489,0.349,0.818
				c0,0.396-0.114,0.778-0.341,1.152c-0.313,0.508-0.709,0.918-1.184,1.228c-0.477,0.312-1.009,0.549-1.598,0.712
				C263.593,55.27,263.063,55.35,262.398,55.403z M262.471,54.982c0.477-0.07,0.846-0.166,1.108-0.288
				c0.261-0.122,0.519-0.316,0.77-0.584s0.47-0.604,0.653-1.013c0.184-0.409,0.275-0.791,0.275-1.149c0-0.15-0.041-0.27-0.126-0.356
				c-0.084-0.086-0.19-0.13-0.32-0.13c-0.259,0-0.552,0.182-0.876,0.544C263.36,52.666,262.865,53.658,262.471,54.982z"/>
			<path fill="#8C0C0C" d="M277.232,47.196l-2.637,9.077c-0.167,0.567-0.251,0.91-0.251,1.029c0,0.059,0.021,0.11,0.064,0.153
				s0.09,0.064,0.139,0.064c0.092,0,0.197-0.045,0.315-0.137c0.201-0.151,0.444-0.438,0.73-0.86l0.293,0.155
				c-0.764,1.329-1.602,1.995-2.516,1.995c-0.324,0-0.574-0.086-0.75-0.257c-0.176-0.169-0.265-0.388-0.265-0.652
				c0-0.254,0.071-0.617,0.212-1.086l0.243-0.828c-0.676,1.194-1.262,1.99-1.761,2.385c-0.377,0.291-0.745,0.438-1.102,0.438
				c-0.406,0-0.748-0.166-1.026-0.495c-0.278-0.33-0.418-0.811-0.418-1.444c0-0.806,0.179-1.601,0.535-2.384
				c0.356-0.785,0.77-1.438,1.236-1.964c0.469-0.523,0.914-0.899,1.339-1.123c0.425-0.225,0.842-0.337,1.253-0.337
				c0.211,0,0.399,0.044,0.563,0.13c0.166,0.087,0.353,0.249,0.563,0.486l0.601-2.019c0.146-0.498,0.22-0.855,0.22-1.071
				c0-0.13-0.049-0.239-0.146-0.333c-0.098-0.092-0.228-0.137-0.39-0.137c-0.076,0-0.171,0.007-0.285,0.023l0.082-0.316l2.668-0.494
				H277.232z M273.663,52.339c0-0.33-0.064-0.571-0.195-0.722c-0.129-0.152-0.28-0.228-0.453-0.228s-0.36,0.089-0.56,0.268
				c-0.384,0.347-0.786,1.042-1.204,2.088c-0.42,1.048-0.63,1.928-0.63,2.641c0,0.26,0.047,0.452,0.139,0.576
				c0.092,0.125,0.194,0.186,0.308,0.186c0.19,0,0.379-0.086,0.567-0.259c0.461-0.411,0.913-1.118,1.359-2.121
				C273.44,53.764,273.663,52.956,273.663,52.339z"/>
			<path fill="#8C0C0C" d="M281.709,50.927l-1.664,5.768c-0.092,0.329-0.137,0.545-0.137,0.648c0,0.06,0.024,0.115,0.073,0.167
				c0.048,0.052,0.099,0.076,0.153,0.076c0.092,0,0.184-0.04,0.275-0.121c0.244-0.2,0.535-0.563,0.877-1.087l0.274,0.162
				c-0.816,1.421-1.684,2.134-2.603,2.134c-0.352,0-0.632-0.1-0.84-0.297s-0.313-0.447-0.313-0.751c0-0.199,0.046-0.453,0.138-0.762
				l1.127-3.878c0.109-0.372,0.163-0.653,0.163-0.843c0-0.118-0.052-0.224-0.153-0.315c-0.104-0.093-0.244-0.138-0.422-0.138
				c-0.082,0-0.179,0.002-0.293,0.007l0.105-0.324l2.75-0.446H281.709z M281.206,47.196c0.335,0,0.616,0.115,0.847,0.349
				c0.23,0.232,0.346,0.514,0.346,0.845c0,0.328-0.117,0.609-0.35,0.842c-0.232,0.233-0.514,0.35-0.843,0.35
				c-0.325,0-0.604-0.116-0.836-0.35c-0.232-0.232-0.349-0.514-0.349-0.842c0-0.331,0.115-0.612,0.346-0.845
				C280.597,47.312,280.875,47.196,281.206,47.196z"/>
			<path fill="#8C0C0C" d="M283.509,51.657l2.497-0.73c0.2,0.249,0.342,0.484,0.423,0.707c0.146,0.383,0.248,0.913,0.308,1.589
				c0.113,1.33,0.192,2.75,0.235,4.258c0.578-0.762,1.241-1.771,1.987-3.024c0.228-0.38,0.341-0.735,0.341-1.071
				c0-0.211-0.131-0.41-0.394-0.6c-0.263-0.19-0.426-0.337-0.491-0.442s-0.097-0.242-0.097-0.411c0-0.27,0.099-0.504,0.296-0.705
				c0.198-0.199,0.437-0.3,0.718-0.3c0.298,0,0.555,0.114,0.774,0.341c0.219,0.228,0.329,0.495,0.329,0.803
				c0,0.363-0.102,0.783-0.305,1.262c-0.202,0.479-0.677,1.3-1.423,2.461c-0.958,1.487-1.896,2.774-2.815,3.861
				c-0.589,0.692-1.064,1.191-1.428,1.496c-0.362,0.307-0.738,0.548-1.127,0.727c-0.232,0.103-0.462,0.154-0.689,0.154
				c-0.309,0-0.571-0.108-0.791-0.324c-0.219-0.216-0.327-0.474-0.327-0.771s0.098-0.548,0.295-0.754
				c0.198-0.205,0.429-0.309,0.694-0.309c0.328,0,0.633,0.174,0.907,0.52c0.185,0.231,0.335,0.349,0.454,0.349
				c0.125,0,0.247-0.035,0.366-0.105c0.161-0.086,0.389-0.286,0.681-0.6c0.032-0.676,0.048-1.188,0.048-1.533
				c0-0.465-0.021-1.119-0.064-1.963l-0.137-3.09c-0.049-0.568-0.171-0.977-0.366-1.226c-0.151-0.183-0.349-0.276-0.592-0.276
				c-0.092,0-0.194,0.009-0.308,0.024V51.657z"/>
			<path fill="#8C0C0C" d="M296.914,50.927c0.428,0,0.829,0.1,1.205,0.296c0.376,0.197,0.66,0.472,0.852,0.823
				s0.288,0.741,0.288,1.168c0,0.877-0.244,1.753-0.734,2.628c-0.489,0.877-1.134,1.567-1.934,2.073
				c-0.801,0.505-1.606,0.759-2.417,0.759c-0.736,0-1.305-0.22-1.708-0.658c-0.403-0.438-0.605-0.974-0.605-1.605
				c0-0.752,0.151-1.456,0.451-2.112c0.301-0.657,0.682-1.23,1.144-1.721c0.463-0.489,0.994-0.886,1.594-1.192
				C295.648,51.08,296.271,50.927,296.914,50.927z M296.582,51.357c-0.286,0-0.525,0.084-0.714,0.251
				c-0.379,0.34-0.806,1.138-1.281,2.389c-0.476,1.252-0.714,2.381-0.714,3.387c0,0.248,0.075,0.454,0.227,0.616
				c0.152,0.162,0.33,0.243,0.536,0.243c0.211,0,0.397-0.064,0.56-0.194c0.237-0.195,0.53-0.633,0.876-1.311
				c0.347-0.678,0.63-1.427,0.851-2.246c0.223-0.819,0.334-1.569,0.334-2.251c0-0.281-0.067-0.499-0.203-0.652
				C296.917,51.435,296.76,51.357,296.582,51.357z"/>
			<path fill="#8C0C0C" d="M304.692,50.927l-1.225,4.559c1.006-2.223,1.763-3.591,2.271-4.104c0.298-0.303,0.611-0.454,0.941-0.454
				c0.228,0,0.411,0.083,0.551,0.247c0.142,0.166,0.212,0.399,0.212,0.702c0,0.524-0.127,0.966-0.382,1.321
				c-0.162,0.229-0.344,0.342-0.543,0.342c-0.217,0-0.379-0.101-0.487-0.3c-0.107-0.201-0.184-0.317-0.227-0.354
				c-0.044-0.035-0.09-0.052-0.139-0.052c-0.054,0-0.11,0.015-0.17,0.048c-0.119,0.064-0.274,0.223-0.466,0.474
				c-0.192,0.253-0.429,0.673-0.71,1.263c-0.281,0.589-0.5,1.089-0.656,1.496c-0.158,0.408-0.377,1.186-0.658,2.332h-1.963
				l1.339-5.378c0.098-0.4,0.146-0.665,0.146-0.794c0-0.146-0.025-0.261-0.077-0.343c-0.051-0.08-0.121-0.139-0.21-0.178
				c-0.09-0.038-0.275-0.057-0.557-0.057l0.074-0.235l2.448-0.535H304.692z"/>
			<path fill="#8C0C0C" d="M312.632,50.927l-1.573,5.515c-0.076,0.256-0.113,0.432-0.113,0.527c0,0.05,0.019,0.088,0.057,0.115
				c0.042,0.043,0.094,0.063,0.154,0.063c0.248,0,0.581-0.221,0.997-0.664c0.595-0.644,1.219-1.568,1.873-2.774l0.738-2.482
				l2.053-0.072l-1.558,5.354c-0.13,0.454-0.195,0.713-0.195,0.778c0,0.044,0.021,0.088,0.062,0.134
				c0.041,0.046,0.082,0.069,0.126,0.069c0.075,0,0.148-0.033,0.219-0.098c0.194-0.157,0.451-0.473,0.771-0.95l0.276,0.195
				c-0.752,1.357-1.58,2.037-2.482,2.037c-0.336,0-0.6-0.086-0.791-0.257c-0.192-0.169-0.288-0.393-0.288-0.669
				c0-0.292,0.068-0.661,0.203-1.111l0.397-1.37c-0.703,1.022-1.214,1.712-1.533,2.068c-0.486,0.535-0.896,0.892-1.229,1.071
				c-0.333,0.178-0.65,0.268-0.953,0.268c-0.286,0-0.534-0.106-0.742-0.316c-0.208-0.212-0.313-0.479-0.313-0.805
				c0-0.274,0.067-0.645,0.203-1.111l0.917-3.244c0.15-0.529,0.227-0.886,0.227-1.069c0-0.082-0.022-0.153-0.064-0.216
				c-0.043-0.062-0.114-0.11-0.216-0.146c-0.1-0.035-0.284-0.053-0.556-0.053l0.082-0.309l2.766-0.479H312.632z"/>
			<path fill="#8C0C0C" d="M325.05,51.154l-4.608,5.442c0.347,0.103,0.603,0.258,0.771,0.462c0.216,0.271,0.372,0.675,0.47,1.213
				c0.098,0.537,0.208,0.879,0.333,1.022s0.252,0.215,0.381,0.215c0.087,0,0.168-0.04,0.243-0.118
				c0.076-0.078,0.113-0.166,0.113-0.263c0-0.104-0.031-0.271-0.097-0.504c-0.044-0.156-0.065-0.308-0.065-0.454
				c0-0.303,0.097-0.556,0.287-0.762c0.192-0.207,0.425-0.31,0.694-0.31c0.244,0,0.447,0.092,0.613,0.272
				c0.164,0.181,0.247,0.418,0.247,0.709c0,0.45-0.206,0.858-0.616,1.226c-0.412,0.367-0.917,0.552-1.517,0.552
				c-0.693,0-1.371-0.319-2.037-0.957c-0.27-0.255-0.489-0.429-0.656-0.52c-0.098-0.049-0.223-0.072-0.373-0.072
				c-0.131,0-0.273,0.046-0.431,0.138h-0.519l4.705-5.581h-1.688c-0.481,0-0.829,0.06-1.042,0.178
				c-0.214,0.119-0.416,0.352-0.604,0.698h-0.35l0.674-2.587H325.05z"/>
		</g>
	</g>
</g>
</svg>
