<svg xmlns="http://www.w3.org/2000/svg" width="99" height="30" viewBox="0 0 99 30">
    <path fill="#F68220" fill-rule="evenodd" d="M14.934 24.793v2.998c0 .606.366 1.043 1.075 1.043.7 0 1.067-.437 1.067-1.043v-2.998h1.326v3.037c0 1.273-.762 2.17-2.393 2.17-1.632 0-2.41-.905-2.41-2.163v-3.044h1.335zm56.273-.077c.816 0 1.525.246 2.066.713l-.716.99c-.427-.36-.984-.537-1.487-.537-.381 0-.549.13-.549.353 0 .628 2.874.153 2.874 2.055 0 1.027-.755 1.71-2.119 1.71-1.03 0-1.746-.33-2.256-.813l.693-1.027c.366.368.93.674 1.632.674.442 0 .716-.153.716-.406 0-.675-2.874-.115-2.874-2.086 0-.859.717-1.626 2.02-1.626zm-29.204.077v2.998c0 .606.366 1.043 1.075 1.043.701 0 1.067-.437 1.067-1.043v-2.998h1.327v3.037c0 1.273-.763 2.17-2.394 2.17-1.631 0-2.409-.905-2.409-2.163v-3.044h1.334zm54.84 0v3.965h2.044v1.15h-3.354v-5.115h1.31zm-11.731 0l1.913 5.115H85.54l-.252-.736h-2.005l-.251.736h-1.487l1.914-5.115h1.654zm-28.747 0l1.067 2.822 1.06-2.822h1.822v5.115h-1.311v-3.382l-1.28 3.382h-.58l-1.289-3.382v3.382h-1.31v-5.115h1.821zm-26.345 0c1.128 0 1.768.751 1.768 1.702 0 .89-.533 1.365-1.014 1.534l1.037 1.879H30.31l-.853-1.718h-.671v1.718h-1.311v-5.115zm-28.251 0v2.101l1.562-2.101h1.616l-1.974 2.393 2.081 2.722H3.446l-1.334-1.925-.343.43v1.495H.457v-5.115H1.77zm82.52 1.304l-.648 1.924h1.288l-.64-1.924zm-54.467-.154h-1.037v1.097h1.037c.35 0 .632-.192.632-.552 0-.353-.282-.545-.632-.545zM90.69 0c3.61 0 7.859 1.583 7.741 5.722l-.012.247h-4.94c.025-.696-.457-1.62-.901-1.993-.42-.373-1.381-.688-2.22-.688-1.811 0-2.221 1.066-2.187 1.822.06 1.315 1.697 1.61 3.006 1.958C94.166 7.838 99 8.341 99 13.185c0 3.776-4.234 5.498-8.359 5.498-4.073 0-7.894-1.225-8.034-5.818l-.004-.264 5.099-.005c-.025 1.69 1.219 3.166 2.997 3.166 1.136 0 2.801-.274 2.801-2.096 0-2.2-4.048-1.825-7.925-3.54-1.803-.794-2.802-2.632-2.802-4.57C82.971 1.308 86.961 0 90.69 0zM72.88.127c5.536 0 8.868 3.39 8.868 9.244 0 5.854-3.332 9.254-8.868 9.254-5.537 0-8.827-3.366-8.827-9.22 0-5.855 3.29-9.278 8.827-9.278zM36.682.037c4.856.014 7.838 1.568 8.493 5.47l.04.258h-5.007c.068-1.652-1.314-2.855-2.87-2.855-3.04 0-3.723 3.663-3.723 6.564 0 3.52 1.332 5.98 3.587 5.98h.073c.504-.005 3.21-.152 3.338-3.56l.005-.255v-.894H36.86V7.446h8.472v10.928c-.918.034-3.813.005-4.222 0h-.048v-1.478s-1.64 1.684-4.44 1.684c-4.715 0-8.473-3.616-8.473-9.22 0-5.604 3.792-9.336 8.533-9.323zM7.994.264l1.788 8.564L11.205.264h8.199l.012 18.123h-5.227V6.113l-2.596 12.268-4.749.006L4.18 7.11v11.277H.005L0 .264h7.994zm47.86-.103c3.131 0 7.187.832 7.187 4.691 0 2.724-1.482 3.969-3.327 3.969 3.25 0 2.898 1.707 3.061 2.835l.014.086v6.632h-5.056c.068-5.258-.034-.103 0-5.945-.03-1.744-.858-1.858-2.767-1.864h-.627l-2.038.008v7.806l-5.022-.008V.16h8.574zM27.01 4.426V18.34h-5.08V4.426h5.08zm45.855-1.412c-3.08 0-3.599 3.518-3.62 6.273v.187c0 2.632.436 6.357 3.586 6.357s3.69-3.76 3.69-6.392c0-2.78-.505-6.425-3.656-6.425zm-18.29.678h-.16l-2.115.009.004 3.582 2.114-.008h.32c1.553-.007 3.165-.11 3.165-1.856 0-1.806-1.728-1.734-3.329-1.727zM27.021.299v3.058h-5.09V.299h5.09z"/>
</svg>
